<?xml version="1.0" standalone="no"?>
<!DOCTYPE svg PUBLIC "-//W3C//DTD SVG 20010904//EN"
 "http://www.w3.org/TR/2001/REC-SVG-20010904/DTD/svg10.dtd">
<svg version="1.0" xmlns="http://www.w3.org/2000/svg"
 width="297.000000pt" height="297.000000pt" viewBox="0 0 297.000000 297.000000"
 preserveAspectRatio="xMidYMid meet">

<g transform="translate(0.000000,297.000000) scale(0.100000,-0.100000)"
fill="#000000" stroke="none">
<path d="M1295 2959 c-636 -87 -1126 -543 -1268 -1179 -31 -140 -30 -431 2
-580 32 -151 74 -268 142 -400 216 -416 622 -704 1102 -780 91 -14 336 -15
422 -1 653 108 1139 586 1249 1230 19 109 21 337 5 444 -46 310 -182 594 -389
811 -218 229 -488 376 -810 441 -93 19 -361 27 -455 14z m-61 -196 c2 -10 21
-106 41 -213 20 -107 39 -205 42 -217 4 -18 1 -23 -13 -23 -38 0 -186 -59
-256 -101 -40 -24 -102 -72 -138 -105 l-65 -62 -178 155 c-97 85 -177 158
-177 163 0 13 148 147 215 196 128 91 266 158 420 204 78 24 102 24 109 3z
m612 -9 c209 -60 391 -164 543 -310 l92 -89 -167 -145 c-92 -80 -173 -149
-181 -153 -8 -5 -41 16 -95 63 -93 78 -219 147 -320 175 -38 10 -68 23 -68 29
-1 6 18 111 42 234 27 141 46 222 54 222 6 0 52 -12 100 -26z m-1221 -974 c57
-20 55 -13 30 -140 -21 -103 -16 -263 10 -358 10 -34 16 -64 13 -67 -2 -2
-102 -38 -223 -79 -156 -54 -221 -72 -226 -64 -14 22 -48 172 -60 263 -21 157
-3 361 47 531 l15 52 172 -60 c95 -33 195 -68 222 -78z m2133 53 c53 -201 56
-473 7 -663 -15 -58 -29 -107 -31 -109 -2 -2 -70 20 -151 49 -81 28 -182 63
-223 78 -41 14 -76 26 -77 26 0 1 8 35 18 76 26 102 27 278 3 380 -10 41 -19
79 -19 84 0 9 407 155 436 155 13 1 22 -19 37 -76z m-619 -141 c19 -9 49 -34
65 -55 29 -36 31 -44 31 -121 0 -72 -3 -87 -27 -123 -34 -51 -85 -75 -173 -81
-152 -9 -234 48 -251 175 -10 83 27 167 88 199 71 37 200 40 267 6z m-534 7
c136 -38 180 -236 76 -340 -43 -44 -122 -64 -216 -56 -143 11 -216 129 -175
279 12 42 76 105 117 114 16 3 33 7 38 9 23 8 123 4 160 -6z m-385 -54 l0 -55
-132 3 c-116 2 -133 0 -136 -14 -3 -15 3 -15 45 -8 88 17 172 -6 212 -57 26
-33 28 -104 4 -145 -36 -61 -143 -89 -262 -69 -61 10 -78 18 -112 49 -21 21
-39 42 -39 48 0 5 27 17 61 27 59 16 61 16 86 -4 42 -33 132 -23 147 17 10 24
-35 63 -72 63 -15 0 -45 -9 -67 -20 -26 -13 -59 -20 -98 -20 -56 0 -59 1 -54
22 4 12 12 63 18 114 l12 93 66 4 c36 2 123 4 194 5 l127 2 0 -55z m-164 -883
c70 -42 145 -73 222 -92 33 -9 42 -15 38 -28 -2 -9 -24 -115 -47 -235 l-42
-218 -31 6 c-68 14 -238 76 -313 113 -43 22 -111 64 -152 93 -79 55 -243 207
-239 220 3 7 177 160 296 260 l56 47 71 -63 c39 -34 103 -80 141 -103z m1239
16 c96 -83 175 -157 175 -164 0 -20 -142 -147 -240 -214 -117 -80 -274 -154
-396 -186 -53 -14 -97 -24 -99 -22 -4 5 -85 433 -85 451 0 10 23 22 73 37 114
35 241 106 321 182 39 37 72 67 74 68 2 0 81 -68 177 -152z"/>
<path d="M892 2503 c-7 -3 -19 -18 -28 -35 -13 -25 -13 -35 -3 -59 33 -80 149
-60 149 26 0 45 -29 75 -72 74 -18 0 -39 -3 -46 -6z"/>
<path d="M1994 2506 c-51 -22 -60 -81 -19 -121 68 -69 178 26 113 98 -30 33
-56 39 -94 23z"/>
<path d="M352 1555 c-32 -14 -42 -32 -42 -76 0 -41 32 -69 78 -69 48 0 76 28
76 75 0 61 -53 94 -112 70z"/>
<path d="M2525 1545 c-16 -15 -25 -36 -25 -55 0 -36 38 -80 69 -80 35 0 69 22
82 51 32 78 -67 144 -126 84z"/>
<path d="M1953 1605 c-44 -31 -48 -131 -8 -175 38 -42 124 -31 150 20 28 54
10 136 -34 160 -29 15 -83 12 -108 -5z"/>
<path d="M1441 1591 c-39 -39 -39 -128 0 -170 25 -27 97 -29 129 -3 41 33 43
130 4 173 -24 27 -106 27 -133 0z"/>
<path d="M885 595 c-16 -15 -25 -36 -25 -55 0 -37 39 -80 72 -80 55 0 95 57
77 108 -18 53 -84 68 -124 27z"/>
<path d="M1994 611 c-29 -13 -48 -63 -37 -98 27 -81 153 -57 153 28 0 54 -63
92 -116 70z"/>
</g>
</svg>
